# Tiled2Unity generated file. Do not modify by hand.
# Wavefront file for 'Mapa_mesh_0008.obj'

# Vertices (Count = 12)
v -7424 -2816 0
v -7552 -2816 0
v -7552 -2723 0
v -7424 -2723 0
v -3712 -2944 0
v -3840 -2944 0
v -3840 -2851 0
v -3712 -2851 0
v -6912 -2944 0
v -7040 -2944 0
v -7040 -2851 0
v -6912 -2851 0

# Texture cooridinates (Count = 4)
vt 0 0
vt 1 0
vt 1 1
vt 0 1

# Normal
vn 0 0 -1

# Mesh description
g Mapa_mesh_0008

# Faces
f 1/1/1 2/2/1 3/3/1 4/4/1
f 5/1/1 6/2/1 7/3/1 8/4/1
f 9/1/1 10/2/1 11/3/1 12/4/1

