# Tiled2Unity generated file. Do not modify by hand.
# Wavefront file for 'Mapa_mesh_0011.obj'

# Vertices (Count = 152)
v -9728 -2816 0
v -9856 -2816 0
v -9856 -2688 0
v -9728 -2688 0
v -15744 -2816 0
v -15872 -2816 0
v -15872 -2688 0
v -15744 -2688 0
v -2944 -2944 0
v -3072 -2944 0
v -3072 -2816 0
v -2944 -2816 0
v -8832 -2944 0
v -8960 -2944 0
v -8960 -2816 0
v -8832 -2816 0
v -9728 -2944 0
v -9856 -2944 0
v -9856 -2816 0
v -9728 -2816 0
v -10624 -2944 0
v -10752 -2944 0
v -10752 -2816 0
v -10624 -2816 0
v -15744 -2944 0
v -15872 -2944 0
v -15872 -2816 0
v -15744 -2816 0
v -2048 -3072 0
v -2176 -3072 0
v -2176 -2944 0
v -2048 -2944 0
v -2944 -3072 0
v -3072 -3072 0
v -3072 -2944 0
v -2944 -2944 0
v -6272 -3072 0
v -6400 -3072 0
v -6400 -2944 0
v -6272 -2944 0
v -8832 -3072 0
v -8960 -3072 0
v -8960 -2944 0
v -8832 -2944 0
v -9728 -3072 0
v -9856 -3072 0
v -9856 -2944 0
v -9728 -2944 0
v -10624 -3072 0
v -10752 -3072 0
v -10752 -2944 0
v -10624 -2944 0
v -12672 -3072 0
v -12800 -3072 0
v -12800 -2944 0
v -12672 -2944 0
v -15744 -3072 0
v -15872 -3072 0
v -15872 -2944 0
v -15744 -2944 0
v -6272 -3200 0
v -6400 -3200 0
v -6400 -3072 0
v -6272 -3072 0
v -12672 -3200 0
v -12800 -3200 0
v -12800 -3072 0
v -12672 -3072 0
v -15744 -3200 0
v -15872 -3200 0
v -15872 -3072 0
v -15744 -3072 0
v -3200 -3328 0
v -3328 -3328 0
v -3328 -3200 0
v -3200 -3200 0
v -6272 -3328 0
v -6400 -3328 0
v -6400 -3200 0
v -6272 -3200 0
v -12672 -3328 0
v -12800 -3328 0
v -12800 -3200 0
v -12672 -3200 0
v -15744 -3328 0
v -15872 -3328 0
v -15872 -3200 0
v -15744 -3200 0
v -3200 -3456 0
v -3328 -3456 0
v -3328 -3328 0
v -3200 -3328 0
v -6272 -3456 0
v -6400 -3456 0
v -6400 -3328 0
v -6272 -3328 0
v -12672 -3456 0
v -12800 -3456 0
v -12800 -3328 0
v -12672 -3328 0
v -15744 -3456 0
v -15872 -3456 0
v -15872 -3328 0
v -15744 -3328 0
v -3200 -3584 0
v -3328 -3584 0
v -3328 -3456 0
v -3200 -3456 0
v -6272 -3584 0
v -6400 -3584 0
v -6400 -3456 0
v -6272 -3456 0
v -12672 -3584 0
v -12800 -3584 0
v -12800 -3456 0
v -12672 -3456 0
v -15744 -3584 0
v -15872 -3584 0
v -15872 -3456 0
v -15744 -3456 0
v -3200 -3712 0
v -3328 -3712 0
v -3328 -3584 0
v -3200 -3584 0
v -6272 -3712 0
v -6400 -3712 0
v -6400 -3584 0
v -6272 -3584 0
v -12672 -3712 0
v -12800 -3712 0
v -12800 -3584 0
v -12672 -3584 0
v -15744 -3712 0
v -15872 -3712 0
v -15872 -3584 0
v -15744 -3584 0
v -3200 -3840 0
v -3328 -3840 0
v -3328 -3712 0
v -3200 -3712 0
v -6272 -3840 0
v -6400 -3840 0
v -6400 -3712 0
v -6272 -3712 0
v -12672 -3840 0
v -12800 -3840 0
v -12800 -3712 0
v -12672 -3712 0
v -15744 -3840 0
v -15872 -3840 0
v -15872 -3712 0
v -15744 -3712 0

# Texture cooridinates (Count = 4)
vt 0 0
vt 1 0
vt 1 1
vt 0 1

# Normal
vn 0 0 -1

# Mesh description
g Mapa_mesh_0011

# Faces
f 1/1/1 2/2/1 3/3/1 4/4/1
f 5/1/1 6/2/1 7/3/1 8/4/1
f 9/1/1 10/2/1 11/3/1 12/4/1
f 13/1/1 14/2/1 15/3/1 16/4/1
f 17/1/1 18/2/1 19/3/1 20/4/1
f 21/1/1 22/2/1 23/3/1 24/4/1
f 25/1/1 26/2/1 27/3/1 28/4/1
f 29/1/1 30/2/1 31/3/1 32/4/1
f 33/1/1 34/2/1 35/3/1 36/4/1
f 37/1/1 38/2/1 39/3/1 40/4/1
f 41/1/1 42/2/1 43/3/1 44/4/1
f 45/1/1 46/2/1 47/3/1 48/4/1
f 49/1/1 50/2/1 51/3/1 52/4/1
f 53/1/1 54/2/1 55/3/1 56/4/1
f 57/1/1 58/2/1 59/3/1 60/4/1
f 61/1/1 62/2/1 63/3/1 64/4/1
f 65/1/1 66/2/1 67/3/1 68/4/1
f 69/1/1 70/2/1 71/3/1 72/4/1
f 73/1/1 74/2/1 75/3/1 76/4/1
f 77/1/1 78/2/1 79/3/1 80/4/1
f 81/1/1 82/2/1 83/3/1 84/4/1
f 85/1/1 86/2/1 87/3/1 88/4/1
f 89/1/1 90/2/1 91/3/1 92/4/1
f 93/1/1 94/2/1 95/3/1 96/4/1
f 97/1/1 98/2/1 99/3/1 100/4/1
f 101/1/1 102/2/1 103/3/1 104/4/1
f 105/1/1 106/2/1 107/3/1 108/4/1
f 109/1/1 110/2/1 111/3/1 112/4/1
f 113/1/1 114/2/1 115/3/1 116/4/1
f 117/1/1 118/2/1 119/3/1 120/4/1
f 121/1/1 122/2/1 123/3/1 124/4/1
f 125/1/1 126/2/1 127/3/1 128/4/1
f 129/1/1 130/2/1 131/3/1 132/4/1
f 133/1/1 134/2/1 135/3/1 136/4/1
f 137/1/1 138/2/1 139/3/1 140/4/1
f 141/1/1 142/2/1 143/3/1 144/4/1
f 145/1/1 146/2/1 147/3/1 148/4/1
f 149/1/1 150/2/1 151/3/1 152/4/1

