# Tiled2Unity generated file. Do not modify by hand.
# Wavefront file for 'Mapa_mesh_0003.obj'

# Vertices (Count = 64)
v -9216 -2688 0
v -9344 -2688 0
v -9344 -2560 0
v -9216 -2560 0
v -14848 -2688 0
v -14976 -2688 0
v -14976 -2560 0
v -14848 -2560 0
v -2432 -2816 0
v -2560 -2816 0
v -2560 -2688 0
v -2432 -2688 0
v -8320 -2816 0
v -8448 -2816 0
v -8448 -2688 0
v -8320 -2688 0
v -10112 -2816 0
v -10240 -2816 0
v -10240 -2688 0
v -10112 -2688 0
v -14592 -2816 0
v -14720 -2816 0
v -14720 -2688 0
v -14592 -2688 0
v -1536 -2944 0
v -1664 -2944 0
v -1664 -2816 0
v -1536 -2816 0
v -5632 -2944 0
v -5760 -2944 0
v -5760 -2816 0
v -5632 -2816 0
v -12160 -2944 0
v -12288 -2944 0
v -12288 -2816 0
v -12160 -2816 0
v -14336 -2944 0
v -14464 -2944 0
v -14464 -2816 0
v -14336 -2816 0
v -4608 -3072 0
v -4736 -3072 0
v -4736 -2944 0
v -4608 -2944 0
v -14080 -3072 0
v -14208 -3072 0
v -14208 -2944 0
v -14080 -2944 0
v 0 -3200 0
v -128 -3200 0
v -128 -3072 0
v 0 -3072 0
v -4096 -3200 0
v -4224 -3200 0
v -4224 -3072 0
v -4096 -3072 0
v -7808 -3200 0
v -7936 -3200 0
v -7936 -3072 0
v -7808 -3072 0
v -13184 -3200 0
v -13312 -3200 0
v -13312 -3072 0
v -13184 -3072 0

# Texture cooridinates (Count = 4)
vt 0 0
vt 1 0
vt 1 1
vt 0 1

# Normal
vn 0 0 -1

# Mesh description
g Mapa_mesh_0003

# Faces
f 1/1/1 2/2/1 3/3/1 4/4/1
f 5/1/1 6/2/1 7/3/1 8/4/1
f 9/1/1 10/2/1 11/3/1 12/4/1
f 13/1/1 14/2/1 15/3/1 16/4/1
f 17/1/1 18/2/1 19/3/1 20/4/1
f 21/1/1 22/2/1 23/3/1 24/4/1
f 25/1/1 26/2/1 27/3/1 28/4/1
f 29/1/1 30/2/1 31/3/1 32/4/1
f 33/1/1 34/2/1 35/3/1 36/4/1
f 37/1/1 38/2/1 39/3/1 40/4/1
f 41/1/1 42/2/1 43/3/1 44/4/1
f 45/1/1 46/2/1 47/3/1 48/4/1
f 49/1/1 50/2/1 51/3/1 52/4/1
f 53/1/1 54/2/1 55/3/1 56/4/1
f 57/1/1 58/2/1 59/3/1 60/4/1
f 61/1/1 62/2/1 63/3/1 64/4/1

